<?xml version="1.0" encoding="UTF-8" standalone="no"?>
<!-- Created with Inkscape (http://www.inkscape.org/) -->

<svg
   xmlns:dc="http://purl.org/dc/elements/1.1/"
   xmlns:cc="http://creativecommons.org/ns#"
   xmlns:rdf="http://www.w3.org/1999/02/22-rdf-syntax-ns#"
   xmlns:svg="http://www.w3.org/2000/svg"
   xmlns="http://www.w3.org/2000/svg"
   xmlns:sodipodi="http://sodipodi.sourceforge.net/DTD/sodipodi-0.dtd"
   xmlns:inkscape="http://www.inkscape.org/namespaces/inkscape"
   width="136.53334"
   height="136.53334"
   id="svg2"
   version="1.1"
   inkscape:version="0.92.1 r15371"
   viewBox="0 0 128 128"
   sodipodi:docname="icon.svg">
  <title
     id="title3729">Easy CryptoCurrency Ticker logotype</title>
  <defs
     id="defs4" />
  <sodipodi:namedview
     id="base"
     pagecolor="#ffffff"
     bordercolor="#666666"
     borderopacity="1.0"
     inkscape:pageopacity="0.0"
     inkscape:pageshadow="2"
     inkscape:zoom="2"
     inkscape:cx="84.169594"
     inkscape:cy="14.951089"
     inkscape:document-units="px"
     inkscape:current-layer="g861"
     showgrid="false"
     inkscape:window-width="1920"
     inkscape:window-height="1017"
     inkscape:window-x="-8"
     inkscape:window-y="-8"
     inkscape:window-maximized="1"
     showguides="true"
     inkscape:guide-bbox="true"
     inkscape:snap-bbox="true"
     inkscape:bbox-paths="true"
     inkscape:bbox-nodes="true"
     inkscape:snap-bbox-edge-midpoints="true"
     inkscape:snap-intersection-paths="true"
     inkscape:object-paths="true">
    <sodipodi:guide
       orientation="1,0"
       position="122.99999,0"
       id="guide3361"
       inkscape:label=""
       inkscape:color="rgb(0,0,255)"
       inkscape:locked="false" />
    <sodipodi:guide
       orientation="0,1"
       position="0,4.9999997"
       id="guide3363"
       inkscape:label=""
       inkscape:color="rgb(0,0,255)"
       inkscape:locked="false" />
    <sodipodi:guide
       orientation="1,0"
       position="4.9999997,4.9999997"
       id="guide3377"
       inkscape:label=""
       inkscape:color="rgb(0,0,255)"
       inkscape:locked="false" />
    <sodipodi:guide
       orientation="0,1"
       position="4.9999997,122.99999"
       id="guide3379"
       inkscape:label=""
       inkscape:color="rgb(0,0,255)"
       inkscape:locked="false" />
    <sodipodi:guide
       orientation="0,1"
       position="0,84.999996"
       id="guide3727"
       inkscape:label=""
       inkscape:color="rgb(0,0,255)"
       inkscape:locked="false" />
  </sodipodi:namedview>
  <metadata
     id="metadata7">
    <rdf:RDF>
      <cc:Work
         rdf:about="">
        <dc:format>image/svg+xml</dc:format>
        <dc:type
           rdf:resource="http://purl.org/dc/dcmitype/StillImage" />
        <dc:title>Easy CryptoCurrency Ticker logotype</dc:title>
        <cc:license
           rdf:resource="http://creativecommons.org/licenses/by-nc-nd/4.0/" />
        <dc:date>2017/12/26</dc:date>
        <dc:creator>
          <cc:Agent>
            <dc:title>Aleksandar Urosevic</dc:title>
          </cc:Agent>
        </dc:creator>
        <dc:description>Logotype for WordPress plugin Easy CryptoCurrency Ticker</dc:description>
      </cc:Work>
      <cc:License
         rdf:about="http://creativecommons.org/licenses/by-nc-nd/4.0/">
        <cc:permits
           rdf:resource="http://creativecommons.org/ns#Reproduction" />
        <cc:permits
           rdf:resource="http://creativecommons.org/ns#Distribution" />
        <cc:requires
           rdf:resource="http://creativecommons.org/ns#Notice" />
        <cc:requires
           rdf:resource="http://creativecommons.org/ns#Attribution" />
        <cc:prohibits
           rdf:resource="http://creativecommons.org/ns#CommercialUse" />
      </cc:License>
    </rdf:RDF>
  </metadata>
  <g
     inkscape:label="Layer 1"
     inkscape:groupmode="layer"
     id="layer1"
     transform="translate(0,-924.3622)">
    <g
       id="g861"
       transform="matrix(0.3091867,0,0,0.31182467,186.70666,684.39333)">
      <path
         sodipodi:nodetypes="cccccsscccccccccccccccccsccccccccccccccc"
         inkscape:connector-curvature="0"
         id="path6510"
         d="m -406.24414,785.19727 -3.31445,3.31445 -95.06836,95.07031 22.06445,22.06445 35.48633,35.48633 c -9.555,-4.9399 -20.35072,-7.81054 -31.83203,-7.81054 -38.36538,0 -69.56836,31.20082 -69.56836,69.56643 v 0.9707 l 21.09765,48.7129 20.96485,21.0136 0.10742,0.094 c 12.27174,10.896 28.46268,17.5254 46.14844,17.5254 h -0.13477 l 7.38672,0.211 v -15.6368 h 21.21289 v 69.5528 l 21.49609,18.6836 h 48.15235 v -88.2364 h 21.94922 l 21.22851,15.545 4.17188,-0.1192 h -0.13281 c 38.36548,10e-5 69.5664,-31.2009 69.5664,-69.5664 0,-17.0672 -6.18354,-32.70064 -16.41917,-44.80224 l -23.61465,-23.93588 c -9.70814,-9.36679 -22.1378,-15.92095 -35.98376,-18.39863 l 32.16797,-32.16992 -22.06445,-22.06445 -10.60938,-10.61328 -22.0664,-22.06446 -25.69141,25.69336 -0.35547,-0.35547 -6.93945,-6.9414 -0.35742,-0.35742 25.6914,-25.69141 -22.06445,-22.06445 -10.61133,-10.61133 z"
         style="color:#000000;font-style:normal;font-variant:normal;font-weight:normal;font-stretch:normal;font-size:medium;line-height:normal;font-family:sans-serif;font-variant-ligatures:normal;font-variant-position:normal;font-variant-caps:normal;font-variant-numeric:normal;font-variant-alternates:normal;font-feature-settings:normal;text-indent:0;text-align:start;text-decoration:none;text-decoration-line:none;text-decoration-style:solid;text-decoration-color:#000000;letter-spacing:normal;word-spacing:normal;text-transform:none;writing-mode:lr-tb;direction:ltr;text-orientation:mixed;dominant-baseline:auto;baseline-shift:baseline;text-anchor:start;white-space:normal;shape-padding:0;clip-rule:nonzero;display:inline;overflow:visible;visibility:visible;opacity:0.5;isolation:auto;mix-blend-mode:normal;color-interpolation:sRGB;color-interpolation-filters:linearRGB;solid-color:#000000;solid-opacity:1;vector-effect:none;fill:#000000;fill-opacity:1;fill-rule:nonzero;stroke:none;stroke-width:9.37499905;stroke-linecap:butt;stroke-linejoin:miter;stroke-miterlimit:3.8636899;stroke-dasharray:none;stroke-dashoffset:0;stroke-opacity:1;color-rendering:auto;image-rendering:auto;shape-rendering:auto;text-rendering:auto;enable-background:accumulate" />
      <path
         sodipodi:nodetypes="cccccccccsscccccccccsscccccsccccccccccccscccccccscc"
         inkscape:connector-curvature="0"
         id="path6471"
         d="m -471.65625,1072.6621 v -15.6348 h 39.96289 v 88.2364 h 50.89844 v -88.2364 h 39.96289 v 15.6348 l 7.31934,-0.207 c 38.30007,0 69.50292,-31.2009 69.50292,-69.5664 0,-38.36554 -31.20294,-69.56643 -69.56835,-69.56643 -11.45079,0 -22.2361,2.82823 -31.77149,7.74804 l 57.48828,-57.48828 -35.99023,-35.99023 -25.69141,25.68945 -26.40234,-26.40234 25.6914,-25.69141 -35.99023,-35.99023 c -32.79434,32.79485 -65.58855,65.58983 -98.38281,98.38476 l 57.48828,57.48828 c -9.53539,-4.91981 -20.3207,-7.74804 -31.77149,-7.74804 -38.36546,0 -69.5664,31.20089 -69.5664,69.56643 0,38.3655 31.20085,69.5664 69.50097,69.5664 z m 54.56445,-101.54491 10.84766,10.84765 10.84766,-10.84765 c -4.92051,9.53568 -7.75,20.31997 -7.75,31.77151 v 0.025 l 0.0351,3.2148 h -6.26562 l 0.0351,-3.2148 v -0.025 c 3e-5,-11.45154 -2.8295,-22.23583 -7.75,-31.77151 z m -43.14843,31.76561 -0.0371,3.2461 h -15.53516 v 15.5137 c -1.03251,-0.029 -2.06511,-0.058 -3.09765,-0.084 -10.36632,0 -18.66797,-8.3036 -18.66796,-18.6699 0,-10.3662 8.30164,-18.66995 18.66795,-18.66995 10.36421,0 18.66673,8.30069 18.66992,18.66405 z m 123.56446,18.7598 v -15.5137 h -15.53516 l -0.0371,-3.2452 c 0.003,-10.36838 8.3056,-18.66905 18.66992,-18.667 10.36631,0.002 18.66991,8.30579 18.66991,18.672 0,10.3663 -8.3036,18.6699 -18.70312,18.6699 z"
         style="color:#000000;font-style:normal;font-variant:normal;font-weight:normal;font-stretch:normal;font-size:medium;line-height:normal;font-family:sans-serif;font-variant-ligatures:normal;font-variant-position:normal;font-variant-caps:normal;font-variant-numeric:normal;font-variant-alternates:normal;font-feature-settings:normal;text-indent:0;text-align:start;text-decoration:none;text-decoration-line:none;text-decoration-style:solid;text-decoration-color:#000000;letter-spacing:normal;word-spacing:normal;text-transform:none;writing-mode:lr-tb;direction:ltr;text-orientation:mixed;dominant-baseline:auto;baseline-shift:baseline;text-anchor:start;white-space:normal;shape-padding:0;clip-rule:nonzero;display:inline;overflow:visible;visibility:visible;opacity:1;isolation:auto;mix-blend-mode:normal;color-interpolation:sRGB;color-interpolation-filters:linearRGB;solid-color:#000000;solid-opacity:1;vector-effect:none;fill:#ffffff;fill-opacity:1;fill-rule:nonzero;stroke:none;stroke-width:9.37499905;stroke-linecap:butt;stroke-linejoin:miter;stroke-miterlimit:3.8636899;stroke-dasharray:none;stroke-dashoffset:0;stroke-opacity:1;color-rendering:auto;image-rendering:auto;shape-rendering:auto;text-rendering:auto;enable-background:accumulate" />
      <path
         sodipodi:nodetypes="cccccccccccccssccccssccccsssccccssccccsssccccccccc"
         style="color:#000000;clip-rule:nonzero;display:inline;overflow:visible;visibility:visible;opacity:1;isolation:auto;mix-blend-mode:normal;color-interpolation:sRGB;color-interpolation-filters:linearRGB;solid-color:#000000;solid-opacity:1;fill:#f79413;fill-opacity:1;fill-rule:nonzero;stroke:none;stroke-width:0.19617243;stroke-linecap:butt;stroke-linejoin:miter;stroke-miterlimit:3.8636899;stroke-dasharray:none;stroke-dashoffset:0;stroke-opacity:1;color-rendering:auto;image-rendering:auto;shape-rendering:auto;text-rendering:auto;enable-background:accumulate"
         d="m -406.24419,791.82698 -91.75443,91.75442 91.75443,91.7535 91.75443,-91.7535 -29.36118,-29.36119 -66.063,66.06299 -3.67087,-3.6708 40.37165,-40.3715 -25.6905,-25.69145 -40.37156,40.37255 -3.67078,-3.6708 66.063,-66.06299 z m -72.66552,146.18262 c -35.83224,0 -64.87998,29.0467 -64.87998,64.8789 0,35.8322 29.04774,64.88 64.87998,64.88 l 2.56575,0.072 v -41.5232 l -2.56575,-0.072 c -12.89963,0 -23.35681,-10.4572 -23.35681,-23.3568 0,-12.8995 10.45718,-23.3567 23.35681,-23.3567 12.89953,0 23.35678,10.4572 23.35678,23.3567 l -0.03,2.6672 h 41.52318 l 0.03,-2.6672 c 9e-5,-35.8322 -29.04769,-64.8789 -64.87987,-64.8789 z m 145.33105,0 c -35.83219,0 -64.87997,29.0467 -64.87997,64.8789 l 0.03,2.6672 h 41.5231 l -0.0291,-2.6672 c 0,-12.8995 10.45716,-23.3567 23.35678,-23.3567 12.89963,0 23.35678,10.4572 23.35678,23.3567 0,12.8996 -10.45715,23.3568 -23.35678,23.3568 l -2.56584,0.072 v 41.5232 l 2.56584,-0.072 c 35.83219,0 64.87997,-29.0478 64.87997,-64.88 0,-35.8322 -29.04778,-64.8789 -64.87997,-64.8789 z m -137.54549,72.8075 v 41.5231 h 44.11837 v 88.2368 h 41.52318 v -88.2368 h 44.11838 v -41.5231 z"
         id="path6497"
         inkscape:connector-curvature="0" />
    </g>
  </g>
</svg>
